# xmcd CD database file
#
# Track frame offsets:
#	150
#	16881
#	30939
#	61617
#	85876
#	99854
#	110862
#	125998
#	169229
#	183118
#	206986
#	238670
#	257324
#	284512
#	297123
#	323284
#
# Disc length: 4607 seconds
#
# Revision: 0
# Processed by: cddbd v1.5.2PL0 Copyright (c) Steve Scherf et al.
# Submitted via: CdAid (MTCDDB.DLL V2003.12.21)
#
DISCID=d511fd10
DTITLE=Catfish Hodge - Different Strokes: The Complete East and Westbound Record
DTITLE=ings  [CD1]
DYEAR=2014
DGENRE=Rock
TTITLE0=Different Strokes
TTITLE1=Ghetto
TTITLE2=Hungry Love
TTITLE3=I Want You (She's So Heavy)
TTITLE4=I'll Be Gone
TTITLE5=Stop
TTITLE6=I'm the Man
TTITLE7=Boogie Man
TTITLE8=Train to Detroit
TTITLE9=Heartbeat of the Street
TTITLE10=Color TV Blues
TTITLE11=Circus Is in Town
TTITLE12=Never Tell Your Mother She's Out of Tune
TTITLE13=Ten Speed Bike
TTITLE14=Living the Blues
TTITLE15=Birmingham
EXTD=ID3G:  17 YEAR: 2014
EXTT0=
EXTT1=
EXTT2=
EXTT3=
EXTT4=
EXTT5=
EXTT6=
EXTT7=
EXTT8=
EXTT9=
EXTT10=
EXTT11=
EXTT12=
EXTT13=
EXTT14=
EXTT15=
PLAYORDER=
